<?xml version="1.0" encoding="utf-8"?>
<!-- Generator: Adobe Illustrator 20.0.0, SVG Export Plug-In . SVG Version: 6.00 Build 0)  -->
<svg version="1.1" id="elite_cloud_Logo" xmlns="http://www.w3.org/2000/svg" xmlns:xlink="http://www.w3.org/1999/xlink" x="0px"
     y="0px" viewBox="0 0 610.8 120.9" style="enable-background:new 0 0 610.8 120.9;" xml:space="preserve">
<style type="text/css">
    #cloud-img{fill:#E2BA5A;}
    #elite,#cloud{fill: #1c1e20;}
</style>
<title>elite-cloud-logo</title>
<g id="elite_cloud_Logo">
    <g id="elite">
        <path d="M60.4,94.2H13.5c2.1,9.6,9.4,15.5,19.2,15.5c6.6,0.1,12.9-2.5,17.5-7.2l7.1,7.6c-6.1,6.6-14.9,10.5-25.7,10.5
            C12.6,120.5,0,107.8,0,89.1s12.9-31.5,31.4-31.6C53.2,57.5,62,71.8,60.4,94.2z M48.8,84.4c-0.5-10-7.1-16.1-17.3-16.1
            c-9.8,0-16.7,6.2-18.2,16.1H48.8z"/>
        <path d="M75,120V33.5h13.4V120H75z"/>
        <path d="M123.3,40.3c0.2,4.3-3.2,7.9-7.5,8.1c-4.3,0.2-7.9-3.2-8.1-7.5c0-0.2,0-0.4,0-0.6c0-4.8,3.4-8.2,7.8-8.2
            S123.3,35.5,123.3,40.3z M108.8,120V58h13.3v62H108.8z"/>
        <path d="M177.1,116.1c-4.6,2.9-9.9,4.4-15.3,4.6c-9.3,0-17.4-5.4-17.4-18.1V70.4h-8.8v-10h8.8v-17h13.3v17H176v10h-18.3v29.7
            c0,6.4,2.4,8.4,6.6,8.4c2.8,0,5.7-0.9,9.3-2.7L177.1,116.1z"/>
        <path d="M243.3,94.2h-46.9c2.1,9.6,9.4,15.5,19.2,15.5c6.6,0.1,12.9-2.5,17.5-7.2l7.1,7.6c-6.1,6.6-14.9,10.5-25.6,10.5
            c-19.1,0-31.7-12.7-31.7-31.4s12.9-31.5,31.4-31.6C236.1,57.5,244.9,71.8,243.3,94.2z M231.7,84.4c-0.5-10-7.1-16.1-17.3-16.1
            c-9.8,0-16.7,6.2-18.2,16.1H231.7z"/>
    </g>
    <path id="cloud-img" d="M289.1,56.4H244c-12.6,0.1-22.8-10-22.9-22.5s10-22.8,22.5-22.9c1.2,0,2.5,0.1,3.7,0.3
        c6.4-10.8,20.3-14.5,31.1-8.1c6.1,3.6,10.2,9.8,11.1,16.9c10.1,0.3,17.9,8.7,17.6,18.8C306.8,48.6,298.9,56.4,289.1,56.4
        L289.1,56.4z M244,19.7c-7.6,0-13.9,6.2-13.9,13.8c0,7.6,6.2,13.9,13.8,13.9c0,0,0,0,0,0h45.1c5.2,0,9.4-4.2,9.4-9.4
        c0.1-5.1-3.9-9.3-9-9.4c-1,0-2.1,0.1-3.1,0.4c-2.3,0.7-4.7-0.6-5.4-2.9c-0.2-0.6-0.2-1.2-0.2-1.8c0.9-7.7-4.6-14.7-12.3-15.6
        c-6.4-0.7-12.5,3-14.8,9c-0.8,2.2-3.2,3.3-5.4,2.6C247,20,245.5,19.8,244,19.7L244,19.7z"/>
    <g id="cloud">
        <path d="M348.2,70.6l-14.5,8.7c-2.9-4.2-7.6-6.6-12.7-6.5c-7.8,0-13.2,6.4-13.2,15.9c0,9.7,5.4,16,13.2,16
            c5.7,0,10.1-2.3,12.8-7.1l14.7,8.6c-5.1,9.2-15.3,14.6-28.6,14.6c-19.4,0-32.4-12.8-32.4-31.9c0-19.4,13.2-32.3,32.7-32.3
            C332.7,56.5,342.8,61.6,348.2,70.6z"/>
        <path d="M359,120V33.5h20.2V120H359z"/>
        <path d="M459.3,88.6c0,19.4-13.8,32.2-34.3,32.2c-20.5,0-34.4-12.8-34.4-32.2s13.8-32.1,34.4-32.1
            C445.6,56.5,459.3,69.2,459.3,88.6z M410.9,88.8c0,9.8,5.7,16.3,14.1,16.3c8.4,0,14-6.5,14-16.3s-5.7-16.4-14-16.4
            C416.7,72.4,410.9,79.1,410.9,88.8L410.9,88.8z"/>
        <path d="M531.4,120h-20.2v-10.4c-4.3,7.5-11.3,11.2-20.4,11.2c-13.6,0-22.5-9.3-22.5-24V57.2h20.2v33.9c0,7.5,4.1,12,10.5,12
            c7.7-0.1,12.2-6.4,12.2-14.9v-31h20.2V120z"/>
        <path d="M610.8,120h-20.2v-8.3c-4.4,5.8-10.8,9.1-18.9,9.1c-17.7,0-29.4-13.1-29.4-32.5c0-19.2,11.5-31.9,28.9-31.9
            c8.3,0,14.9,3.3,19.3,9.1v-32h20.2L610.8,120z M590.7,88.8c0-9.7-5.6-16.3-14-16.3s-14,6.6-14.1,16.3c0.1,9.7,5.7,16.4,14.1,16.4
            S590.7,98.4,590.7,88.8L590.7,88.8z"/>
    </g>
</g>
</svg>
